<svg width="519" height="378" viewBox="0 0 519 378" fill="none" xmlns="http://www.w3.org/2000/svg">
<ellipse cx="101.232" cy="3.33339" rx="0.786114" ry="0.555555" fill="white"/>
<ellipse cx="219.149" cy="0.555557" rx="0.786103" ry="0.555557" fill="white"/>
<ellipse cx="337.065" cy="3.33339" rx="0.786114" ry="0.555555" fill="white"/>
<ellipse cx="454.982" cy="6.1111" rx="0.786114" ry="0.555555" fill="white"/>
<ellipse cx="116.954" cy="58.8889" rx="0.786103" ry="0.555553" fill="white"/>
<ellipse cx="234.871" cy="56.1111" rx="0.786103" ry="0.555557" fill="white"/>
<ellipse cx="352.788" cy="58.8889" rx="0.786114" ry="0.555553" fill="white"/>
<ellipse cx="470.704" cy="61.6666" rx="0.786135" ry="0.555553" fill="white"/>
<ellipse cx="93.3708" cy="114.444" rx="0.786114" ry="0.555557" fill="white"/>
<ellipse cx="211.288" cy="111.667" rx="0.786146" ry="0.555557" fill="white"/>
<ellipse cx="329.204" cy="114.444" rx="0.786135" ry="0.555557" fill="white"/>
<ellipse cx="447.121" cy="117.222" rx="0.786092" ry="0.555565" fill="white"/>
<ellipse cx="22.6208" cy="173.333" rx="0.786108" ry="0.55555" fill="white"/>
<ellipse cx="140.538" cy="170.555" rx="0.786114" ry="0.555557" fill="white"/>
<ellipse cx="258.454" cy="167.778" rx="0.786124" ry="0.555557" fill="white"/>
<ellipse cx="376.371" cy="170.555" rx="0.786092" ry="0.555557" fill="white"/>
<ellipse cx="494.288" cy="172.778" rx="0.786114" ry="0.555557" fill="white"/>
<ellipse cx="2.96799" cy="228.889" rx="0.786108" ry="0.555557" fill="white"/>
<ellipse cx="120.885" cy="226.111" rx="0.786103" ry="0.555542" fill="white"/>
<ellipse cx="238.802" cy="223.333" rx="0.786146" ry="0.555557" fill="white"/>
<ellipse cx="356.718" cy="226.111" rx="0.786114" ry="0.555542" fill="white"/>
<ellipse cx="474.635" cy="228.889" rx="0.786114" ry="0.555557" fill="white"/>
<ellipse cx="101.232" cy="281.667" rx="0.786114" ry="0.555557" fill="white"/>
<ellipse cx="219.149" cy="278.889" rx="0.786103" ry="0.555557" fill="white"/>
<ellipse cx="337.065" cy="281.667" rx="0.786114" ry="0.555557" fill="white"/>
<ellipse cx="454.982" cy="284.444" rx="0.786114" ry="0.555557" fill="white"/>
<ellipse cx="46.2041" cy="340" rx="0.786114" ry="0.555557" fill="white"/>
<ellipse cx="164.121" cy="337.222" rx="0.786114" ry="0.555542" fill="white"/>
<ellipse cx="282.038" cy="334.444" rx="0.786157" ry="0.555557" fill="white"/>
<ellipse cx="399.954" cy="337.222" rx="0.786135" ry="0.555542" fill="white"/>
<ellipse cx="517.871" cy="339.444" rx="0.786114" ry="0.555557" fill="white"/>
</svg>
